<svg xmlns="http://www.w3.org/2000/svg" viewBox="0 0 512 512"><defs>
  <linearGradient id="bg" x1="0" y1="0" x2="1" y2="1"><stop offset="0" stop-color="#3d8ff2"/><stop offset="1" stop-color="#1747a6"/></linearGradient>
  <linearGradient id="wl" x1="0" y1="0" x2="0" y2="1"><stop offset="0" stop-color="#ffffff"/><stop offset="1" stop-color="#e3eefc"/></linearGradient>
  <linearGradient id="cn" x1="0" y1="0" x2="1" y2="1"><stop offset="0" stop-color="#ffd166"/><stop offset="1" stop-color="#f4a62a"/></linearGradient>
</defs>
<rect width="512" height="512" rx="112" fill="url(#bg)"/><g transform="translate(256 262) scale(1.2) translate(-268 -262)">  <!-- card peeking out of the wallet -->
  <rect x="150" y="132" width="196" height="120" rx="22" fill="#9fd0ff" transform="rotate(-10 248 192)"/>
  <rect x="166" y="150" width="70" height="14" rx="7" fill="#ffffff" opacity=".7" transform="rotate(-10 248 192)"/>
  <!-- wallet body -->
  <rect x="112" y="196" width="288" height="196" rx="44" fill="url(#wl)"/>
  <!-- clasp -->
  <rect x="300" y="256" width="124" height="76" rx="38" fill="#cfe2fb"/>
  <circle cx="340" cy="294" r="15" fill="#1f5fc4"/>
  <!-- coin -->
  <circle cx="186" cy="330" r="44" fill="url(#cn)" stroke="#ffffff" stroke-width="8"/>
  <path d="M186 304v52M199 314c-3-5-8-7-14-7-8 0-14 4-14 10 0 14 29 8 29 22 0 6-6 10-15 10-7 0-12-3-15-8" fill="none" stroke="#7a4a00" stroke-width="7" stroke-linecap="round"/>
</g></svg>